<?xml version="1.0" standalone="no"?>
<!DOCTYPE svg PUBLIC "-//W3C//DTD SVG 20010904//EN"
 "http://www.w3.org/TR/2001/REC-SVG-20010904/DTD/svg10.dtd">
<svg version="1.0" xmlns="http://www.w3.org/2000/svg"
 width="64.000000pt" height="64.000000pt" viewBox="0 0 64.000000 64.000000"
 preserveAspectRatio="xMidYMid meet">

<g transform="translate(0.000000,64.000000) scale(0.100000,-0.100000)"
fill="#000000" stroke="none">
<path d="M454 536 c-49 -48 -59 -90 -24 -101 11 -3 24 -3 30 0 7 4 10 -53 10
-168 0 -159 2 -175 19 -191 15 -14 24 -15 40 -6 20 10 21 19 21 189 0 174 1
179 20 174 24 -6 50 13 50 37 0 19 -92 110 -111 110 -6 0 -31 -20 -55 -44z"/>
<path d="M272 558 c-16 -16 -15 -43 2 -57 22 -18 117 -10 130 12 8 12 8 22 0
35 -14 21 -112 30 -132 10z"/>
<path d="M192 418 c-6 -6 -12 -20 -12 -29 0 -32 25 -40 120 -37 76 2 95 6 104
21 8 12 8 22 0 35 -9 14 -28 18 -105 20 -65 2 -98 -1 -107 -10z"/>
<path d="M112 278 c-6 -6 -12 -20 -12 -29 0 -34 24 -40 160 -37 114 3 134 6
144 21 8 12 8 22 0 35 -10 15 -30 17 -145 20 -96 2 -138 -1 -147 -10z"/>
<path d="M32 138 c-7 -7 -12 -20 -12 -29 0 -35 23 -40 200 -37 152 3 174 5
184 20 8 13 8 23 0 35 -10 16 -32 18 -185 21 -127 2 -178 -1 -187 -10z"/>
</g>
</svg>
